<?xml version="1.0" encoding="UTF-8"?>
<!DOCTYPE svg PUBLIC "-//W3C//DTD SVG 1.1//EN" "http://www.w3.org/Graphics/SVG/1.1/DTD/svg11.dtd">
<!-- Creator: CorelDRAW X6 -->
<svg xmlns="http://www.w3.org/2000/svg" xml:space="preserve" width="3.54mm" height="2.54mm" version="1.1" style="shape-rendering:geometricPrecision; text-rendering:geometricPrecision; image-rendering:optimizeQuality; fill-rule:evenodd; clip-rule:evenodd"
viewBox="0 0 354 254"
 xmlns:xlink="http://www.w3.org/1999/xlink">
 <defs>
  <style type="text/css">
   <![CDATA[
    .fil0 {fill:#2B2A29}
    .fil1 {fill:#E31E24;fill-rule:nonzero}
   ]]>
  </style>
 </defs>
 <g id="Layer_x0020_1">
  <metadata id="CorelCorpID_0Corel-Layer"/>
  <path class="fil0" d="M19 0l315 0c10,0 18,8 18,18l0 176c0,9 -8,17 -18,17l-315 0c-9,0 -17,-8 -17,-17l0 -176c0,-10 8,-18 17,-18zm11 16l294 0c6,0 11,5 11,11l0 156c0,6 -5,11 -11,11l-294 0c-6,0 -11,-5 -11,-11l0 -156c0,-6 5,-11 11,-11z"/>
  <path class="fil1" d="M168 73l-30 0 0 83 -21 0 0 -83 -29 0 0 -16 80 0 0 16zm55 58l22 -74 23 0 -35 99 -21 0 -34 -99 22 0 23 74z"/>
  <polygon class="fil0" points="77,237 130,237 141,226 214,226 226,237 275,237 290,254 63,254 "/>
 </g>
</svg>
