<?xml version="1.0" encoding="UTF-8"?>
<!DOCTYPE svg PUBLIC "-//W3C//DTD SVG 1.1//EN" "http://www.w3.org/Graphics/SVG/1.1/DTD/svg11.dtd">
<!-- Creator: CorelDRAW X6 -->
<svg xmlns="http://www.w3.org/2000/svg" xml:space="preserve" width="6.04mm" height="2.54mm" version="1.1" style="shape-rendering:geometricPrecision; text-rendering:geometricPrecision; image-rendering:optimizeQuality; fill-rule:evenodd; clip-rule:evenodd"
viewBox="0 0 604 254"
 xmlns:xlink="http://www.w3.org/1999/xlink">
 <defs>
  <style type="text/css">
   <![CDATA[
    .fil1 {fill:#2B2A29}
    .fil0 {fill:#E31E29}
   ]]>
  </style>
 </defs>
 <g id="Layer_x0020_1">
  <metadata id="CorelCorpID_0Corel-Layer"/>
  <g id="_740578944">
   <polygon class="fil0" points="121,201 169,250 1,250 1,6 169,6 121,54 49,54 49,201 "/>
   <polygon class="fil1" points="261,6 140,128 261,250 193,250 73,128 193,6 "/>
   <polygon class="fil1" points="285,250 319,250 319,220 330,203 352,250 392,250 354,173 384,128 351,128 319,179 319,128 285,128 "/>
   <polygon class="fil1" points="511,250 603,250 603,222 547,222 547,201 592,201 592,175 547,175 547,156 602,156 602,128 511,128 "/>
   <path class="fil1" d="M579 24l4 0c2,0 3,0 4,-1 0,-1 1,-1 1,-2 0,-1 -1,-1 -1,-2 0,-1 -1,-1 -1,-1 -1,0 -1,0 -3,0l-4 0 0 6zm-3 12l3 0 0 -10 2 0c1,0 2,1 2,2 2,0 3,2 4,4l2 4 4 0 -3 -4c-1,-3 -2,-4 -3,-4 0,-1 -1,-2 -1,-2 1,0 3,-1 4,-2 1,-1 1,-2 1,-3 0,-1 0,-3 -1,-4 0,0 -1,-1 -2,-1 -1,-1 -3,-1 -5,-1l-7 0 0 21zm8 -27c-3,0 -5,1 -8,2 -2,1 -4,3 -6,6 -1,3 -2,5 -2,8 0,3 1,5 2,8 2,3 4,4 6,5 3,2 5,3 8,3 3,0 5,-1 8,-3 2,-1 4,-2 6,-5 1,-3 1,-5 1,-8 0,-3 0,-5 -1,-8 -2,-3 -4,-5 -7,-6 -2,-1 -4,-2 -7,-2l0 0zm0 -3c3,0 6,0 9,2 3,2 5,4 7,8 2,2 3,5 3,9 0,3 -1,7 -3,9 -1,3 -4,6 -7,7 -3,2 -6,3 -9,3 -3,0 -6,-1 -9,-3 -4,-1 -6,-4 -8,-7 -1,-2 -2,-6 -2,-9 0,-4 1,-7 3,-9 1,-4 4,-6 7,-8 3,-2 6,-2 9,-2l0 0z"/>
   <path class="fil1" d="M431 175l0 -21 17 0 1 0 1 0 0 0 1 0 0 0 1 0 0 0 1 0 1 1 0 0 1 1 0 0 0 0 1 0 0 0 0 1 1 0 0 0 1 0 0 0 0 1 0 0 1 0 0 1 0 0 0 1 0 0 0 1 1 0 0 0 0 1 0 0 0 1 0 1 0 0 0 1 0 0 0 1 0 1 0 0 0 0 0 1 -1 0 0 1 0 0 0 1 0 0 0 1 -1 0 0 1 0 0 0 0 -1 0 -1 0 0 1 0 0 -1 0 0 1 -1 0 0 0 -1 0 -1 0 0 1 0 0 -1 0 0 0 -1 0 0 0 -1 0 -1 0 -17 0zm31 41l0 1 -1 0 0 0 0 1 -1 1 0 0 0 0 -1 0 0 1 0 0 0 0 -1 0 0 1 0 0 -1 0 -1 1 0 0 -1 0 0 1 0 0 -1 0 0 0 0 0 -1 0 -1 0 0 0 -1 0 0 0 -1 0 0 0 -19 0 0 -7 0 -15 19 0 0 0 1 0 0 0 1 0 0 0 1 0 1 0 0 0 1 0 0 1 1 0 0 1 0 0 1 0 1 0 0 0 0 0 0 1 1 0 0 0 0 0 0 1 1 0 0 0 0 1 1 0 0 1 0 0 1 1 0 0 0 1 0 0 0 0 0 1 0 1 0 0 0 1 0 0 0 1 0 0 0 1 0 1 0 0 0 1 0 0zm-65 0l0 34 58 0 1 0 2 0 1 0 1 0 2 0 1 0 1 0 1 0 1 0 2 0 0 -1 2 0 1 0 1 0 0 -1 2 0 1 0 1 -1 0 0 2 0 0 0 1 -1 1 0 1 0 1 -1 1 -1 0 0 1 0 0 -1 2 0 0 -1 1 0 0 -1 1 -1 1 0 1 -1 0 0 0 -1 1 0 1 -1 0 -1 0 -1 1 0 0 -1 1 0 0 -2 1 0 0 -1 0 -1 1 0 0 -2 0 0 0 -1 0 -1 1 -1 0 -1 0 -1 1 -1 0 -1 0 -1 0 -1 0 0 0 -2 0 -1 0 0 0 -1 0 -1 0 -1 0 0 0 -1 0 -1 0 0 0 -1 -1 -1 0 -1 0 0 -1 -1 0 0 0 -1 0 -1 0 0 0 -1 0 0 -1 -1 0 0 0 -1 0 -1 -1 0 0 -1 0 0 -1 -1 0 0 0 -1 -1 0 0 -1 0 0 -1 -1 0 0 -1 0 0 -1 0 0 -1 -1 -1 -1 0 0 -1 0 0 -1 -1 0 0 -1 -2 0 0 0 0 0 -1 -1 0 0 -1 -1 0 0 -1 0 -1 0 0 0 -1 -1 -1 0 0 0 -1 0 -1 0 0 0 -1 -1 -1 0 1 0 0 0 1 0 0 -1 2 0 0 0 1 -1 0 0 1 0 0 -1 1 0 1 0 0 0 1 0 0 -1 1 0 0 0 0 -1 1 -1 1 0 0 0 0 -1 1 0 0 0 1 -1 0 0 1 0 0 -1 1 -1 0 -1 0 0 1 0 0 -1 0 0 1 -1 0 -1 0 0 0 -1 0 0 0 0 1 -1 0 0 0 -1 0 -1 1 0 0 -1 0 0 0 -1 0 0 0 -1 0 -1 1 0 0 -1 0 0 0 -1 0 -1 0 -1 0 -1 0 0 0 -1 0 -1 0 -1 0 0 0 -1 0 0 0 -1 0 -1 -1 0 0 0 0 -1 0 0 0 -1 0 0 0 -1 0 0 -1 -1 0 -1 0 0 0 -1 -1 0 0 -1 0 0 0 -1 0 -1 -1 0 0 -1 0 0 0 0 -1 -1 0 0 0 -1 0 -1 -1 0 0 0 0 -1 -1 0 0 0 -1 -1 0 0 0 -1 -1 0 0 -1 0 0 -1 0 -1 -1 0 0 0 -1 -1 0 0 0 -1 -1 0 0 0 -1 -1 0 -1 0 0 0 0 -1 -1 0 0 0 -1 0 0 0 0 -1 -1 0 -1 0 0 0 -1 0 0 0 -1 -1 0 0 -1 -1 -1 0 0 0 -1 0 0 0 -1 0 0 0 -1 0 -1 0 0 0 -1 0 0 0 -1 -1 0 0 -1 0 -1 0 0 0 -1 0 0 0 -1 0 0 0 -1 0 -1 0 -1 0 0 0 -1 0 0 0 -2 0 -1 0 -58 0 0 55 0 33z"/>
  </g>
 </g>
</svg>
